# 3ds Max Wavefront OBJ Exporter v0.97b - (c)2007 guruware
# File Created: 29.06.2014 14:27:42

mtllib po_chodnia.mtl

#
# object Cylinder001
#

v  7.1122 0.0000 0.0000
v  5.4483 0.0000 -4.5716
v  6.8391 84.3812 -5.7387
v  8.9279 84.3812 0.0000
v  1.2350 0.0000 -7.0042
v  1.5503 84.3812 -8.7922
v  -3.5561 0.0000 -6.1594
v  -4.4639 84.3812 -7.7318
v  -6.6833 0.0000 -2.4325
v  -8.3894 84.3812 -3.0535
v  -6.6833 0.0000 2.4325
v  -8.3894 84.3812 3.0535
v  -3.5561 0.0000 6.1594
v  -4.4639 84.3812 7.7318
v  1.2350 0.0000 7.0042
v  1.5503 84.3812 8.7922
v  5.4483 0.0000 4.5716
v  6.8391 84.3812 5.7387
v  9.1104 168.0000 -7.6445
v  11.8928 168.0000 0.0000
v  2.0652 168.0000 -11.7121
v  -5.9464 168.0000 -10.2994
v  -11.1756 168.0000 -4.0676
v  -11.1756 168.0000 4.0676
v  -5.9464 168.0000 10.2994
v  2.0652 168.0000 11.7121
v  9.1104 168.0000 7.6445
v  10.3529 252.0000 -8.6871
v  13.5147 252.0000 0.0000
v  2.3468 252.0000 -13.3094
v  -6.7574 252.0000 -11.7041
v  -12.6997 252.0000 -4.6223
v  -12.6997 252.0000 4.6223
v  -6.7574 252.0000 11.7041
v  2.3468 252.0000 13.3094
v  10.3529 252.0000 8.6871
v  11.4648 345.4331 -9.6201
v  14.9662 345.4331 0.0000
v  2.5989 345.4331 -14.7388
v  -7.4831 345.4331 -12.9611
v  -14.0636 345.4331 -5.1187
v  -14.0636 345.4331 5.1187
v  -7.4831 345.4331 12.9611
v  2.5989 345.4331 14.7388
v  11.4648 345.4331 9.6201
v  26.6207 393.4893 0.0000
v  20.3926 393.4893 -17.1114
v  17.1429 421.1468 -14.3846
v  22.3785 421.1468 0.0000
v  4.6226 393.4893 -26.2162
v  3.8860 421.1468 -22.0385
v  -13.3103 393.4893 -23.0542
v  -11.1893 421.1468 -19.3804
v  -25.0152 393.4893 -9.1048
v  -21.0289 421.1468 -7.6539
v  -25.0152 393.4893 9.1048
v  -21.0289 421.1468 7.6539
v  -13.3103 393.4893 23.0542
v  -11.1893 421.1468 19.3804
v  4.6226 393.4893 26.2162
v  3.8860 421.1468 22.0385
v  20.3926 393.4893 17.1114
v  17.1429 421.1468 14.3846
v  3.5561 0.0000 0.0000
v  2.7241 0.0000 -2.2858
v  0.6175 0.0000 -3.5021
v  -1.7781 0.0000 -3.0797
v  -3.3416 0.0000 -1.2163
v  -3.3416 0.0000 1.2163
v  -1.7781 0.0000 3.0797
v  0.6175 0.0000 3.5021
v  2.7241 0.0000 2.2858
v  -0.0000 0.0000 0.0000
v  15.0000 424.4376 -0.0000
v  11.4907 424.4376 -9.6418
v  5.7453 427.7285 -4.8209
v  7.5000 427.7285 -0.0000
v  2.6047 424.4376 -14.7721
v  1.3024 427.7285 -7.3861
v  -7.5000 424.4376 -12.9904
v  -3.7500 427.7285 -6.4952
v  -14.0954 424.4376 -5.1303
v  -7.0477 427.7285 -2.5651
v  -14.0954 424.4376 5.1303
v  -7.0477 427.7285 2.5652
v  -7.5000 424.4376 12.9904
v  -3.7500 427.7285 6.4952
v  2.6047 424.4376 14.7721
v  1.3024 427.7285 7.3861
v  11.4907 424.4376 9.6418
v  5.7453 427.7285 4.8209
v  -2.3548 429.9142 -0.0000
v  17.1489 355.4379 -14.3896
v  22.3863 355.4379 0.0000
v  3.8873 355.4379 -22.0462
v  -11.1932 355.4379 -19.3871
v  -21.0362 355.4379 -7.6566
v  -21.0362 355.4379 7.6566
v  -11.1931 355.4379 19.3871
v  3.8873 355.4379 22.0462
v  17.1489 355.4379 14.3896
v  20.8468 420.9111 0.0000
v  15.9695 420.9111 -13.4000
v  15.9695 420.9111 13.4000
v  3.6200 420.9111 20.5301
v  -10.4234 420.9111 18.0538
v  -19.5895 420.9111 7.1300
v  -19.5896 420.9111 -7.1300
v  -10.4234 420.9111 -18.0538
v  3.6200 420.9111 -20.5301
v  15.9690 352.4862 -13.3996
v  20.8461 352.4862 0.0000
v  3.6199 352.4862 -20.5294
v  -10.4230 352.4862 -18.0532
v  -19.5889 352.4862 -7.1298
v  -19.5889 352.4862 7.1298
v  -10.4230 352.4862 18.0532
v  3.6199 352.4862 20.5294
v  15.9690 352.4862 13.3996
# 119 vertices

vn 0.6751 -0.7331 -0.0819
vn 0.4645 -0.7331 -0.4967
vn 0.7657 -0.0285 -0.6425
vn 0.9996 -0.0285 -0.0000
vn 0.0366 -0.7331 -0.6791
vn 0.1736 -0.0285 -0.9844
vn -0.4085 -0.7331 -0.5437
vn -0.4998 -0.0285 -0.8657
vn -0.6624 -0.7331 -0.1539
vn -0.9393 -0.0285 -0.3419
vn -0.6064 -0.7331 0.3079
vn -0.9393 -0.0285 0.3418
vn -0.2666 -0.7331 0.6256
vn -0.4998 -0.0285 0.8657
vn 0.1979 -0.7331 0.6506
vn 0.1735 -0.0285 0.9844
vn 0.5698 -0.7331 0.3712
vn 0.7657 -0.0285 0.6425
vn 0.7657 -0.0273 -0.6425
vn 0.9996 -0.0273 -0.0000
vn 0.1736 -0.0273 -0.9844
vn -0.4998 -0.0273 -0.8657
vn -0.9393 -0.0273 -0.3419
vn -0.9393 -0.0273 0.3419
vn -0.4998 -0.0273 0.8657
vn 0.1736 -0.0273 0.9844
vn 0.7658 -0.0273 0.6425
vn 0.7659 -0.0174 -0.6427
vn 0.9998 -0.0174 -0.0000
vn 0.1736 -0.0174 -0.9846
vn -0.4999 -0.0174 -0.8659
vn -0.9395 -0.0174 -0.3420
vn -0.9395 -0.0174 0.3420
vn -0.4999 -0.0174 0.8659
vn 0.1736 -0.0174 0.9846
vn 0.7659 -0.0174 0.6427
vn 0.7257 -0.3518 -0.5913
vn 0.9359 -0.3518 0.0135
vn 0.1758 -0.3518 -0.9194
vn -0.4563 -0.3518 -0.8173
vn -0.8749 -0.3518 -0.3328
vn -0.8841 -0.3518 0.3074
vn -0.4797 -0.3518 0.8038
vn 0.1492 -0.3518 0.9241
vn 0.7083 -0.3518 0.6120
vn 0.9925 0.0206 -0.1204
vn 0.6829 0.0206 -0.7302
vn 0.4939 0.8197 -0.2900
vn 0.5648 0.8197 0.0952
vn 0.0537 0.0206 -0.9983
vn 0.1919 0.8197 -0.5396
vn -0.6005 0.0206 -0.7993
vn -0.1999 0.8197 -0.5367
vn -0.9738 0.0206 -0.2263
vn -0.4981 0.8197 -0.2827
vn -0.8914 0.0206 0.4526
vn -0.5633 0.8197 0.1036
vn -0.3919 0.0206 0.9197
vn -0.3649 0.8197 0.4415
vn 0.2909 0.0206 0.9565
vn 0.0042 0.8197 0.5727
vn 0.8377 0.0206 0.5457
vn 0.3714 0.8197 0.4360
vn 0.0000 -1.0000 -0.0000
vn 0.4599 0.8879 0.0068
vn 0.3566 0.8879 -0.2904
vn 0.2733 0.9423 -0.1935
vn 0.3287 0.9440 0.0293
vn 0.0865 0.8879 -0.4517
vn 0.0856 0.9367 -0.3395
vn -0.2241 0.8879 -0.4017
vn -0.1656 0.9274 -0.3354
vn -0.4298 0.8879 -0.1636
vn -0.3612 0.9187 -0.1598
vn -0.4345 0.8879 0.1509
vn -0.3811 0.9185 0.1049
vn -0.2358 0.8879 0.3949
vn -0.2162 0.9271 0.3061
vn 0.0732 0.8879 0.4541
vn 0.0280 0.9365 0.3496
vn 0.3479 0.8879 0.3008
vn 0.2356 0.9421 0.2383
vn -0.0505 0.9987 -0.0000
vn 0.8017 -0.2907 -0.5223
vn 0.9498 -0.2907 0.1152
vn 0.2784 -0.2907 -0.9154
vn -0.3751 -0.2907 -0.8802
vn -0.8531 -0.2907 -0.4331
vn -0.9320 -0.2907 0.2166
vn -0.5747 -0.2907 0.7649
vn 0.0514 -0.2907 0.9554
vn 0.6535 -0.2907 0.6988
vn 0.1908 0.9807 -0.0429
vn 0.1186 0.9807 -0.1555
vn 0.1737 0.9807 0.0898
vn 0.0754 0.9807 0.1804
vn -0.0582 0.9807 0.1867
vn -0.1646 0.9807 0.1056
vn -0.1939 0.9807 -0.0249
vn -0.1325 0.9807 -0.1438
vn -0.0091 0.9807 -0.1953
vn 0.6329 -0.5552 -0.5397
vn 0.8317 -0.5552 -0.0066
vn 0.1379 -0.5552 -0.8202
vn -0.4216 -0.5552 -0.7169
vn -0.7838 -0.5552 -0.2782
vn -0.7793 -0.5552 0.2907
vn -0.4101 -0.5552 0.7236
vn 0.1509 -0.5552 0.8179
vn 0.6414 -0.5552 0.5295
# 110 vertex normals

vt 0.0100 0.1808 0.0000
vt 0.0100 0.1702 0.0000
vt 0.2064 0.1675 0.0000
vt 0.2064 0.1808 0.0000
vt 0.0100 0.2880 0.0000
vt 0.0100 0.2782 0.0000
vt 0.2064 0.2790 0.0000
vt 0.2064 0.2913 0.0000
vt 0.0100 0.2671 0.0000
vt 0.2064 0.2650 0.0000
vt 0.0100 0.0780 0.0000
vt 0.0100 0.0693 0.0000
vt 0.2064 0.0708 0.0000
vt 0.2064 0.0816 0.0000
vt 0.0100 0.0580 0.0000
vt 0.2064 0.0565 0.0000
vt 0.0100 0.0493 0.0000
vt 0.2064 0.0457 0.0000
vt 0.0100 0.4022 0.0000
vt 0.0100 0.3911 0.0000
vt 0.2064 0.3904 0.0000
vt 0.2064 0.4044 0.0000
vt 0.0100 0.3813 0.0000
vt 0.2064 0.3781 0.0000
vt 0.0100 0.1915 0.0000
vt 0.2064 0.1942 0.0000
vt 0.4009 0.1630 0.0000
vt 0.4009 0.1808 0.0000
vt 0.4009 0.2802 0.0000
vt 0.4009 0.2965 0.0000
vt 0.4009 0.2615 0.0000
vt 0.4009 0.0731 0.0000
vt 0.4009 0.0876 0.0000
vt 0.4009 0.0542 0.0000
vt 0.4009 0.0397 0.0000
vt 0.4009 0.3892 0.0000
vt 0.4009 0.4078 0.0000
vt 0.4009 0.3728 0.0000
vt 0.4009 0.1986 0.0000
vt 0.5964 0.1606 0.0000
vt 0.5964 0.1808 0.0000
vt 0.5964 0.2808 0.0000
vt 0.5964 0.2994 0.0000
vt 0.5964 0.2596 0.0000
vt 0.5964 0.0744 0.0000
vt 0.5964 0.0909 0.0000
vt 0.5964 0.0529 0.0000
vt 0.5964 0.0364 0.0000
vt 0.5964 0.3885 0.0000
vt 0.5964 0.4097 0.0000
vt 0.5964 0.3699 0.0000
vt 0.5964 0.2010 0.0000
vt 0.8138 0.1584 0.0000
vt 0.8138 0.1808 0.0000
vt 0.8138 0.2814 0.0000
vt 0.8138 0.3020 0.0000
vt 0.8138 0.2579 0.0000
vt 0.8138 0.0756 0.0000
vt 0.8138 0.0938 0.0000
vt 0.8138 0.0517 0.0000
vt 0.8138 0.0335 0.0000
vt 0.8138 0.3879 0.0000
vt 0.8138 0.4114 0.0000
vt 0.8138 0.3673 0.0000
vt 0.8138 0.2032 0.0000
vt 0.9256 0.1808 0.0000
vt 0.9256 0.1410 0.0000
vt 0.9900 0.1474 0.0000
vt 0.9900 0.1808 0.0000
vt 0.9256 0.3228 0.0000
vt 0.9256 0.2861 0.0000
vt 0.9900 0.2844 0.0000
vt 0.9900 0.3152 0.0000
vt 0.9256 0.2444 0.0000
vt 0.9900 0.2493 0.0000
vt 0.9256 0.1173 0.0000
vt 0.9256 0.0848 0.0000
vt 0.9900 0.0815 0.0000
vt 0.9900 0.1087 0.0000
vt 0.9256 0.0425 0.0000
vt 0.9900 0.0458 0.0000
vt 0.9256 0.0100 0.0000
vt 0.9900 0.0185 0.0000
vt 0.9256 0.4249 0.0000
vt 0.9256 0.3832 0.0000
vt 0.9900 0.3849 0.0000
vt 0.9900 0.4200 0.0000
vt 0.9256 0.3465 0.0000
vt 0.9900 0.3541 0.0000
vt 0.9256 0.2207 0.0000
vt 0.9900 0.2143 0.0000
vt 0.0157 0.5773 0.0000
vt 0.0263 0.5734 0.0000
vt 0.0263 0.5817 0.0000
vt 0.0210 0.5836 0.0000
vt 0.0100 0.5871 0.0000
vt 0.0181 0.5885 0.0000
vt 0.0120 0.5982 0.0000
vt 0.0191 0.5941 0.0000
vt 0.0206 0.6055 0.0000
vt 0.0235 0.5977 0.0000
vt 0.0320 0.6055 0.0000
vt 0.0291 0.5977 0.0000
vt 0.0406 0.5982 0.0000
vt 0.0335 0.5941 0.0000
vt 0.0426 0.5871 0.0000
vt 0.0344 0.5885 0.0000
vt 0.0369 0.5773 0.0000
vt 0.0316 0.5836 0.0000
vt 0.0263 0.5900 0.0000
vt 0.0613 0.4658 0.0000
vt 0.0837 0.4740 0.0000
vt 0.0725 0.4874 0.0000
vt 0.0613 0.4833 0.0000
vt 0.0957 0.4947 0.0000
vt 0.0785 0.4977 0.0000
vt 0.0915 0.5182 0.0000
vt 0.0764 0.5095 0.0000
vt 0.0732 0.5335 0.0000
vt 0.0673 0.5171 0.0000
vt 0.0493 0.5335 0.0000
vt 0.0553 0.5171 0.0000
vt 0.0311 0.5182 0.0000
vt 0.0462 0.5095 0.0000
vt 0.0269 0.4947 0.0000
vt 0.0441 0.4977 0.0000
vt 0.0388 0.4740 0.0000
vt 0.0501 0.4874 0.0000
vt 0.0613 0.5062 0.0000
vt 0.8371 0.1473 0.0000
vt 0.8371 0.1808 0.0000
vt 0.8371 0.2844 0.0000
vt 0.8371 0.3153 0.0000
vt 0.8371 0.2493 0.0000
vt 0.8371 0.0815 0.0000
vt 0.8371 0.1088 0.0000
vt 0.8371 0.0458 0.0000
vt 0.8371 0.0185 0.0000
vt 0.8371 0.3849 0.0000
vt 0.8371 0.4200 0.0000
vt 0.8371 0.3541 0.0000
vt 0.8371 0.2143 0.0000
vt 0.0613 0.4522 0.0000
vt 0.0925 0.4636 0.0000
vt 0.0301 0.4636 0.0000
vt 0.0135 0.4923 0.0000
vt 0.0193 0.5250 0.0000
vt 0.0447 0.5463 0.0000
vt 0.0779 0.5463 0.0000
vt 0.1033 0.5250 0.0000
vt 0.1091 0.4923 0.0000
vt 0.8302 0.1497 0.0000
vt 0.8302 0.1808 0.0000
vt 0.0147 0.0127 0.0000
vt 0.0385 0.0127 0.0000
vt 0.0432 0.0335 0.0000
vt 0.0100 0.0335 0.0000
vt 0.8302 0.2511 0.0000
vt 0.8302 0.2838 0.0000
vt 0.1660 0.4770 0.0000
vt 0.1422 0.4770 0.0000
vt 0.1375 0.4562 0.0000
vt 0.1707 0.4562 0.0000
vt 0.8302 0.0471 0.0000
vt 0.8302 0.0802 0.0000
vt 0.0397 0.6576 0.0000
vt 0.0159 0.6576 0.0000
vt 0.0112 0.6367 0.0000
vt 0.0444 0.6367 0.0000
vt 0.8302 0.3856 0.0000
vt 0.8302 0.4182 0.0000
vt 0.0147 0.0964 0.0000
vt 0.0385 0.0964 0.0000
vt 0.0432 0.1173 0.0000
vt 0.0100 0.1173 0.0000
vt 0.8302 0.2120 0.0000
vt 0.0613 0.4487 0.0000
vt 0.0948 0.4609 0.0000
vt 0.0278 0.4609 0.0000
vt 0.0100 0.4917 0.0000
vt 0.0162 0.5268 0.0000
vt 0.0435 0.5497 0.0000
vt 0.0791 0.5497 0.0000
vt 0.1064 0.5268 0.0000
vt 0.1126 0.4917 0.0000
vt 0.8302 0.3125 0.0000
vt 0.1363 0.4487 0.0000
vt 0.1719 0.4487 0.0000
vt 0.0100 0.6292 0.0000
vt 0.0456 0.6292 0.0000
vt 0.8302 0.3568 0.0000
# 191 texture coords

g Cylinder001
usemtl Material__0
s off
f 1/1/1 2/2/2 3/3/3 4/4/4 
f 2/5/2 5/6/5 6/7/6 3/8/3 
f 5/6/5 7/9/7 8/10/8 6/7/6 
f 7/11/7 9/12/9 10/13/10 8/14/8 
f 9/12/9 11/15/11 12/16/12 10/13/10 
f 11/15/11 13/17/13 14/18/14 12/16/12 
f 13/19/13 15/20/15 16/21/16 14/22/14 
f 15/20/15 17/23/17 18/24/18 16/21/16 
f 17/25/17 1/1/1 4/4/4 18/26/18 
f 4/4/4 3/3/3 19/27/19 20/28/20 
f 3/8/3 6/7/6 21/29/21 19/30/19 
f 6/7/6 8/10/8 22/31/22 21/29/21 
f 8/14/8 10/13/10 23/32/23 22/33/22 
f 10/13/10 12/16/12 24/34/24 23/32/23 
f 12/16/12 14/18/14 25/35/25 24/34/24 
f 14/22/14 16/21/16 26/36/26 25/37/25 
f 16/21/16 18/24/18 27/38/27 26/36/26 
f 18/26/18 4/4/4 20/28/20 27/39/27 
f 20/28/20 19/27/19 28/40/28 29/41/29 
f 19/30/19 21/29/21 30/42/30 28/43/28 
f 21/29/21 22/31/22 31/44/31 30/42/30 
f 22/33/22 23/32/23 32/45/32 31/46/31 
f 23/32/23 24/34/24 33/47/33 32/45/32 
f 24/34/24 25/35/25 34/48/34 33/47/33 
f 25/37/25 26/36/26 35/49/35 34/50/34 
f 26/36/26 27/38/27 36/51/36 35/49/35 
f 27/39/27 20/28/20 29/41/29 36/52/36 
f 29/41/29 28/40/28 37/53/37 38/54/38 
f 28/43/28 30/42/30 39/55/39 37/56/37 
f 30/42/30 31/44/31 40/57/40 39/55/39 
f 31/46/31 32/45/32 41/58/41 40/59/40 
f 32/45/32 33/47/33 42/60/42 41/58/41 
f 33/47/33 34/48/34 43/61/43 42/60/42 
f 34/50/34 35/49/35 44/62/44 43/63/43 
f 35/49/35 36/51/36 45/64/45 44/62/44 
f 36/52/36 29/41/29 38/54/38 45/65/45 
f 46/66/46 47/67/47 48/68/48 49/69/49 
f 47/70/47 50/71/50 51/72/51 48/73/48 
f 50/71/50 52/74/52 53/75/53 51/72/51 
f 52/76/52 54/77/54 55/78/55 53/79/53 
f 54/77/54 56/80/56 57/81/57 55/78/55 
f 56/80/56 58/82/58 59/83/59 57/81/57 
f 58/84/58 60/85/60 61/86/61 59/87/59 
f 60/85/60 62/88/62 63/89/63 61/86/61 
f 62/90/62 46/66/46 49/69/49 63/91/63 
f 2/92/2 1/93/1 64/94/64 65/95/64 
f 5/96/5 2/92/2 65/95/64 66/97/64 
f 7/98/7 5/96/5 66/97/64 67/99/64 
f 9/100/9 7/98/7 67/99/64 68/101/64 
f 11/102/11 9/100/9 68/101/64 69/103/64 
f 13/104/13 11/102/11 69/103/64 70/105/64 
f 15/106/15 13/104/13 70/105/64 71/107/64 
f 17/108/17 15/106/15 71/107/64 72/109/64 
f 1/93/1 17/108/17 72/109/64 64/94/64 
f 65/95/64 64/94/64 73/110/64 
f 66/97/64 65/95/64 73/110/64 
f 67/99/64 66/97/64 73/110/64 
f 68/101/64 67/99/64 73/110/64 
f 69/103/64 68/101/64 73/110/64 
f 70/105/64 69/103/64 73/110/64 
f 71/107/64 70/105/64 73/110/64 
f 72/109/64 71/107/64 73/110/64 
f 64/94/64 72/109/64 73/110/64 
f 74/111/65 75/112/66 76/113/67 77/114/68 
f 75/112/66 78/115/69 79/116/70 76/113/67 
f 78/115/69 80/117/71 81/118/72 79/116/70 
f 80/117/71 82/119/73 83/120/74 81/118/72 
f 82/119/73 84/121/75 85/122/76 83/120/74 
f 84/121/75 86/123/77 87/124/78 85/122/76 
f 86/123/77 88/125/79 89/126/80 87/124/78 
f 88/125/79 90/127/81 91/128/82 89/126/80 
f 90/127/81 74/111/65 77/114/68 91/128/82 
f 77/114/68 76/113/67 92/129/83 
f 76/113/67 79/116/70 92/129/83 
f 79/116/70 81/118/72 92/129/83 
f 81/118/72 83/120/74 92/129/83 
f 83/120/74 85/122/76 92/129/83 
f 85/122/76 87/124/78 92/129/83 
f 87/124/78 89/126/80 92/129/83 
f 89/126/80 91/128/82 92/129/83 
f 91/128/82 77/114/68 92/129/83 
f 93/130/84 47/67/47 46/66/46 94/131/85 
f 95/132/86 50/71/50 47/70/47 93/133/84 
f 96/134/87 52/74/52 50/71/50 95/132/86 
f 97/135/88 54/77/54 52/76/52 96/136/87 
f 98/137/89 56/80/56 54/77/54 97/135/88 
f 99/138/90 58/82/58 56/80/56 98/137/89 
f 100/139/91 60/85/60 58/84/58 99/140/90 
f 101/141/92 62/88/62 60/85/60 100/139/91 
f 94/131/85 46/66/46 62/90/62 101/142/92 
f 75/112/66 74/111/65 102/143/93 103/144/94 
f 74/111/65 90/127/81 104/145/95 102/143/93 
f 90/127/81 88/125/79 105/146/96 104/145/95 
f 88/125/79 86/123/77 106/147/97 105/146/96 
f 86/123/77 84/121/75 107/148/98 106/147/97 
f 84/121/75 82/119/73 108/149/99 107/148/98 
f 82/119/73 80/117/71 109/150/100 108/149/99 
f 80/117/71 78/115/69 110/151/101 109/150/100 
f 78/115/69 75/112/66 103/144/94 110/151/101 
f 38/54/38 37/53/37 111/152/102 112/153/103 
f 37/154/37 39/155/39 113/156/104 111/157/102 
f 39/55/39 40/57/40 114/158/105 113/159/104 
f 40/160/40 41/161/41 115/162/106 114/163/105 
f 41/58/41 42/60/42 116/164/107 115/165/106 
f 42/166/42 43/167/43 117/168/108 116/169/107 
f 43/63/43 44/62/44 118/170/109 117/171/108 
f 44/172/44 45/173/45 119/174/110 118/175/109 
f 45/65/45 38/54/38 112/153/103 119/176/110 
f 103/144/94 102/143/93 49/177/49 48/178/48 
f 102/143/93 104/145/95 63/179/63 49/177/49 
f 104/145/95 105/146/96 61/180/61 63/179/63 
f 105/146/96 106/147/97 59/181/59 61/180/61 
f 106/147/97 107/148/98 57/182/57 59/181/59 
f 107/148/98 108/149/99 55/183/55 57/182/57 
f 108/149/99 109/150/100 53/184/53 55/183/55 
f 109/150/100 110/151/101 51/185/51 53/184/53 
f 110/151/101 103/144/94 48/178/48 51/185/51 
f 112/153/103 111/152/102 93/130/84 94/131/85 
f 111/186/102 113/159/104 95/132/86 93/133/84 
f 113/159/104 114/158/105 96/134/87 95/132/86 
f 114/163/105 115/162/106 97/187/88 96/188/87 
f 115/165/106 116/164/107 98/137/89 97/135/88 
f 116/169/107 117/168/108 99/189/90 98/190/89 
f 117/171/108 118/170/109 100/139/91 99/140/90 
f 118/170/109 119/191/110 101/141/92 100/139/91 
f 119/176/110 112/153/103 94/131/85 101/142/92 
# 108 polygons - 18 triangles

